PathFileType	4	(X/Y/Z)	/Users/itak/Documents/Research/Walk-IL/dataset/trc/00558_00009.trc
DataRate	CameraRate	NumFrames	NumMarkers	Units	OrigDataRate	OrigDataStartFrame	OrigNumFrames
100.000000	100.000000	4	54	mm	100.000000	285	456
Frame#	Time	RPSI			LPSI			L3			STRN			T10			C7			CLAV			RBAK			LBAK			LSHO			LUPA			LAEL			LAOL			LWTS			LWPS			LFRA			LIFD			LHPS			LHTS			RSHO			RUPA			RAEL			RAOL			RWTS			RWPS			RFRA			RHTS			RHPS			RBHD			LFHD			RFHD			LBHD			LHIP			RHIP			RASI			LASI			LKNE			LTHI			LANK			LTIP			LTOE			LMT1			LMT5			LHEE			RKNE			RTHI			RANK			RTIP			RTOE			RMT1			RMT5			RHEE			RIFD			*53			
		X1	Y1	Z1	X2	Y2	Z2	X3	Y3	Z3	X4	Y4	Z4	X5	Y5	Z5	X6	Y6	Z6	X7	Y7	Z7	X8	Y8	Z8	X9	Y9	Z9	X10	Y10	Z10	X11	Y11	Z11	X12	Y12	Z12	X13	Y13	Z13	X14	Y14	Z14	X15	Y15	Z15	X16	Y16	Z16	X17	Y17	Z17	X18	Y18	Z18	X19	Y19	Z19	X20	Y20	Z20	X21	Y21	Z21	X22	Y22	Z22	X23	Y23	Z23	X24	Y24	Z24	X25	Y25	Z25	X26	Y26	Z26	X27	Y27	Z27	X28	Y28	Z28	X29	Y29	Z29	X30	Y30	Z30	X31	Y31	Z31	X32	Y32	Z32	X33	Y33	Z33	X34	Y34	Z34	X35	Y35	Z35	X36	Y36	Z36	X37	Y37	Z37	X38	Y38	Z38	X39	Y39	Z39	X40	Y40	Z40	X41	Y41	Z41	X42	Y42	Z42	X43	Y43	Z43	X44	Y44	Z44	X45	Y45	Z45	X46	Y46	Z46	X47	Y47	Z47	X48	Y48	Z48	X49	Y49	Z49	X50	Y50	Z50	X51	Y51	Z51	X52	Y52	Z52	X53	Y53	Z53	X54	Y54	Z54	

286	2.85	941.1522216796875	1008.626037597656	424.0455322265625	995.0870971679688	1014.214965820312	303.4578857421875	972.91259765625	1116.390014648438	361.8619689941406	1195.1962890625	1304.474731445312	451.324462890625	967.101806640625	1241.566528320312	355.9763793945312	1014.797912597656	1514.362426757812	389.460205078125	1177.442626953125	1415.04248046875	445.50439453125	914.3666381835938	1392.488037109375	442.1098937988281	1012.6025390625	1464.373413085938	288.9418334960938	1134.441284179688	1492.205322265625	258.3357238769531	1174.848022460938	1382.804321289062	171.6845245361328	1255.04248046875	1201.0068359375	139.2837829589844	1178.187866210938	1135.64208984375	136.4056701660156	1418.987426757812	1142.697387695312	318.3908081054688	1464.139038085938	1096.340698242188	259.1076049804688	1323.9951171875	1168.86767578125	172.9791107177734	1535.411376953125	1063.737548828125	403.147216796875	1506.968505859375	1080.13330078125	298.0884094238281	1491.664794921875	1127.484375	345.4996948242188	1011.701049804688	1479.148559570312	553.3400268554688	964.4920043945312	1420.178955078125	607.3453369140625	908.2019653320312	1143.220581054688	660.1747436523438	860.2335205078125	1123.030395507812	622.267578125	1089.70166015625	964.056640625	658.0684814453125	1033.94384765625	925.3743896484375	704.3018188476562	924.1912231445312	1089.17236328125	670.3157958984375	1140.683715820312	893.4269409179688	694.1923828125	1076.017944335938	866.1041259765625	718.6453247070312	1094.989135742188	1695.298461914062	493.7489624023438	1281.282592773438	1689.985595703125	401.0776977539062	1228.79296875	1688.671752929688	536.1521606445312	1161.023803710938	1693.733642578125	342.3215637207031	1168.705932617188	949.8392333984375	235.5253753662109	1014.285522460938	950.7666625976562	586.853515625	1111.252197265625	993.05712890625	566.8259887695312	1216.628295898438	981.0052490234375	313.0054931640625	1272.813842773438	520.6485595703125	340.8062133789062	1245.078857421875	684.3755493164062	293.3038940429688	1177.255126953125	45.33445358276367	328.551025390625	1213.995361328125	266.1643371582031	325.0693359375	1364.875610351562	36.08099746704102	449.8037414550781	1281.321411132812	47.70431518554688	457.9471130371094	1295.753295898438	37.60555648803711	353.4458618164062	1096.087890625	49.37670135498047	356.576904296875	1182.619140625	536.784423828125	625.7892456054688	1083.286010742188	814.9296875	618.6241455078125	1046.880737304688	67.54088592529297	552.316162109375	1176.18994140625	387.9229431152344	612.0989990234375	1263.889526367188	74.37838745117188	600.784423828125	1222.73974609375	75.38922882080078	537.0969848632812	1160.191772460938	62.68954849243164	619.0331420898438	1019.504638671875	63.18292617797852	479.6660766601562	1157.202514648438	812.3814697265625	676.6500854492188	nan	nan	nan	
287	2.86	947.25048828125	1009.684326171875	427.3018188476562	1000.574157714844	1015.280212402344	306.4014892578125	978.7808837890625	1116.810668945312	364.5910339355469	1200.369750976562	1305.789306640625	452.9153442382812	972.0733642578125	1242.094482421875	358.4922485351562	1019.272827148438	1515.097290039062	391.2058715820312	1182.299194335938	1416.360961914062	446.9320678710938	919.3812866210938	1393.047973632812	444.2185668945312	1016.869812011719	1464.995483398438	290.7396240234375	1138.481201171875	1493.109252929688	259.7912292480469	1178.963134765625	1383.630859375	173.22900390625	1259.882202148438	1202.343505859375	141.2979888916016	1183.472412109375	1136.498779296875	138.2137756347656	1422.76904296875	1146.666137695312	322.0606384277344	1468.791625976562	1100.298095703125	263.4463195800781	1328.74072265625	1171.01806640625	175.6456451416016	1539.145263671875	1069.409423828125	408.3558959960938	1511.417724609375	1084.7451171875	302.9248352050781	1495.33984375	1132.31591796875	349.8335571289062	1016.623596191406	1480.218872070312	555.0950317382812	969.4872436523438	1421.408447265625	609.25244140625	913.11767578125	1144.578735351562	662.6751098632812	864.9147338867188	1124.503784179688	624.96630859375	1094.07666015625	964.90869140625	659.5543212890625	1038.713256835938	926.4612426757812	706.4816284179688	928.9569091796875	1090.494140625	672.8368530273438	1145.24169921875	894.0287475585938	695.3225708007812	1080.74951171875	866.9723510742188	720.3981323242188	1099.215576171875	1696.326049804688	495.0814819335938	1285.581787109375	1691.365966796875	402.5135192871094	1233.024169921875	1689.979370117188	537.5767822265625	1165.34912109375	1694.855224609375	343.669677734375	1173.90625	950.7968139648438	237.6986999511719	1020.971130371094	951.434326171875	589.7418212890625	1117.879272460938	993.7724609375	569.198974609375	1222.171508789062	981.9559936523438	314.9308776855469	1274.531372070312	520.4403686523438	341.6324462890625	1248.2099609375	684.5137939453125	294.5726928710938	1177.35009765625	45.50028991699219	328.5058288574219	1214.77490234375	266.3327331542969	325.4338684082031	1364.83740234375	36.0959587097168	449.744384765625	1281.310668945312	47.72818374633789	457.9120178222656	1295.745239257812	37.5883674621582	353.4808959960938	1096.138061523438	49.79031753540039	356.4039916992188	1185.546997070312	535.4468994140625	625.489501953125	1090.034545898438	814.5099487304688	620.5139770507812	1054.845092773438	64.06016540527344	556.7138061523438	1180.447509765625	386.5177307128906	612.6531372070312	1272.898193359375	68.69889831542969	600.75390625	1230.281005859375	71.00533294677734	538.0516357421875	1169.499877929688	57.77790069580078	621.2745361328125	1026.09619140625	60.63289642333984	484.5703430175781	1161.294555664062	812.9298095703125	677.6436767578125	nan	nan	nan	
288	2.87	953.2007446289062	1010.19970703125	430.6374206542969	1005.9091796875	1015.850830078125	309.4070739746094	984.5382080078125	1116.745361328125	367.4066772460938	1205.440795898438	1306.654907226562	454.4444580078125	976.8721313476562	1242.115234375	361.1034851074219	1023.548461914062	1515.381103515625	393.0146484375	1187.034301757812	1417.221435546875	448.3250122070312	924.2489624023438	1393.097045898438	446.4522399902344	1020.920288085938	1465.1416015625	292.6052856445312	1142.283325195312	1493.569458007812	261.1982421875	1182.73046875	1383.991088867188	174.6704711914062	1264.217651367188	1203.14404296875	143.1339111328125	1188.198974609375	1136.876220703125	139.9006652832031	1426.112915039062	1149.82861328125	325.3479919433594	1472.945556640625	1103.520751953125	267.3116149902344	1332.96826171875	1172.57373046875	178.0611877441406	1542.471435546875	1074.116943359375	412.9989624023438	1515.387084960938	1088.55712890625	307.2418823242188	1498.598876953125	1136.310791015625	353.7151184082031	1021.472351074219	1480.833129882812	556.9199829101562	974.4773559570312	1422.1669921875	611.25634765625	918.181640625	1145.437377929688	665.3908081054688	869.7595825195312	1125.4560546875	627.9134521484375	1098.588256835938	965.280517578125	661.206298828125	1043.657470703125	927.1180419921875	708.881591796875	933.9053955078125	1091.351196289062	675.5733642578125	1149.977416992188	894.2073364257812	696.646728515625	1085.664672851562	867.4481811523438	722.4144287109375	1103.327514648438	1696.955200195312	496.3641052246094	1289.718139648438	1692.353637695312	403.8211364746094	1237.14208984375	1690.914306640625	538.8978271484375	1169.489501953125	1695.552124023438	344.9353332519531	1178.959716796875	951.3536376953125	239.8580932617188	1027.614624023438	951.5780639648438	592.6854858398438	1124.338256835938	993.8028564453125	571.373779296875	1227.61181640625	982.5333862304688	316.8282470703125	1276.460327148438	519.9827270507812	342.5623168945312	1251.428100585938	684.3644409179688	295.8504333496094	1177.3857421875	45.53273391723633	328.4654541015625	1215.647338867188	266.3162231445312	325.8410949707031	1364.78662109375	36.1157341003418	449.6854248046875	1281.266845703125	47.70022964477539	457.904541015625	1295.71875	37.55065536499023	353.5029602050781	1096.14697265625	49.99427795410156	356.2530212402344	1188.318359375	533.6796875	625.25390625	1096.898071289062	813.58544921875	622.4351196289062	1061.123413085938	61.05960845947266	560.0691528320312	1184.102172851562	384.7791137695312	612.9910278320312	1280.184326171875	62.67746353149414	600.1353149414062	1236.24072265625	66.36013793945312	538.4051513671875	1176.983520507812	53.15537643432617	622.7739868164062	1031.190063476562	58.55202484130859	488.3790283203125	1165.5517578125	813.04541015625	678.9222412109375	nan	nan	nan	
289	2.88	958.9832153320312	1010.203552246094	434.0263671875	1011.081848144531	1015.948425292969	312.457763671875	990.1278686523438	1116.249633789062	370.3102722167969	1210.406616210938	1307.09033203125	455.9250183105469	981.5127563476562	1241.680908203125	363.8135375976562	1027.645874023438	1515.254150390625	394.900634765625	1191.660522460938	1417.640380859375	449.7005310058594	928.9747314453125	1392.676879882812	448.8278503417969	1024.7705078125	1464.849243164062	294.5588989257812	1145.877075195312	1493.616333007812	262.5782775878906	1186.176391601562	1383.913940429688	176.0382690429688	1268.054931640625	1203.430908203125	144.7969818115234	1192.360717773438	1136.803833007812	141.4775695800781	1429.043701171875	1152.181884765625	328.2452392578125	1476.614501953125	1105.985717773438	270.6990661621094	1336.685913085938	1173.542358398438	180.2271728515625	1545.421508789062	1077.837768554688	417.0709838867188	1518.896484375	1091.540893554688	311.0279846191406	1501.466674804688	1139.4443359375	357.1355895996094	1026.257446289062	1481.014404296875	558.8273315429688	979.4779052734375	1422.470825195312	613.3770751953125	923.4059448242188	1145.817749023438	668.3014526367188	874.7619018554688	1125.90576171875	631.0861206054688	1103.258666992188	965.1878662109375	663.0548706054688	1048.762573242188	927.3431396484375	711.4777221679688	939.0420532226562	1091.750732421875	678.5017700195312	1154.87744140625	893.9761352539062	698.1822509765625	1090.741333007812	867.528076171875	724.6821899414062	1107.338134765625	1697.210327148438	497.615966796875	1293.7041015625	1692.97119140625	405.0191955566406	1241.164672851562	1691.5068359375	540.1293334960938	1173.456665039062	1695.849731445312	346.1376953125	1183.857177734375	951.5234985351562	242.0105895996094	1034.181396484375	951.2353515625	595.656005859375	1130.619262695312	993.2247924804688	573.39111328125	1232.950073242188	982.75830078125	318.6890563964844	1278.585571289062	519.2937622070312	343.5931701660156	1254.718505859375	683.9403686523438	297.1472473144531	1177.358276367188	45.44589614868164	328.4438781738281	1216.602783203125	266.1243286132812	326.301025390625	1364.724365234375	36.14136123657227	449.6283569335938	1281.194580078125	47.6263313293457	457.927978515625	1295.670532226562	37.49837112426758	353.5268249511719	1096.10693359375	49.99526977539062	356.1472473144531	1190.933349609375	531.5349731445312	625.0612182617188	1103.613159179688	812.2592163085938	624.3612060546875	1065.794921875	58.51054382324219	562.424072265625	1187.217407226562	382.7140502929688	613.0990600585938	1285.827758789062	56.8006706237793	599.1129150390625	1240.7412109375	61.72582244873047	538.2951049804688	1182.720703125	49.129150390625	623.6650390625	1034.914428710938	56.72306060791016	491.1089172363281	1169.982543945312	812.7447509765625	680.495849609375	nan	nan	nan	
